<svg width="205" height="39" viewBox="0 0 205 39" fill="none" xmlns="http://www.w3.org/2000/svg">
<g opacity="0.9" filter="url(#filter0_d_2443_11650)">
<path d="M28.952 9.632H28.6V10.112H29.336V10.272H29.048L28.952 10.912H29.304C29.2827 10.9547 29.272 11.008 29.272 11.072H28.824C28.8027 11.1787 28.7813 11.2853 28.76 11.392C28.7387 11.4987 28.7067 11.6053 28.664 11.712C28.664 11.7973 28.6427 11.904 28.6 12.032H28.28L28.088 12.512H28.056C28.0347 12.6187 27.992 12.7253 27.928 12.832C27.864 12.9387 27.8107 13.0453 27.768 13.152H27.832L27.736 13.312H28.024C27.96 13.4187 27.896 13.5253 27.832 13.632C27.768 13.7387 27.6933 13.8453 27.608 13.952H27.832C27.7467 14.0587 27.6507 14.1653 27.544 14.272C27.4587 14.3787 27.3627 14.4853 27.256 14.592H27.192C27.064 14.6987 26.936 14.8053 26.808 14.912C26.7013 15.0187 26.5733 15.1253 26.424 15.232H26.232C26.0613 15.3387 25.88 15.4453 25.688 15.552C25.5173 15.6587 25.336 15.7653 25.144 15.872H25.24C25.1973 15.8933 25.144 15.9147 25.08 15.936C25.016 15.9573 24.9627 15.9893 24.92 16.032H24.888C24.4827 16.224 24.0347 16.384 23.544 16.512C23.3093 16.576 23.064 16.64 22.808 16.704C22.552 16.7467 22.296 16.7893 22.04 16.832H22.008C21.1547 16.96 20.248 17.024 19.288 17.024H17.048V17.312H17.272V17.952H17.656V18.112H16.888V18.432H17.176V18.912H16.376V19.072H17.368V19.712H17.08V20.512H17.208V20.992H16.824V21.632H16.664V21.952H17.72V22.432H16.824V23.072H17.432V23.136C17.432 23.2427 17.4213 23.328 17.4 23.392H17.208C17.208 23.4133 17.1867 23.4667 17.144 23.552H17.24C17.2187 23.5947 17.176 23.648 17.112 23.712H17.144C17.0587 23.7973 16.9947 23.8507 16.952 23.872H16.984C16.8773 23.9573 16.728 24 16.536 24H9.944C9.752 24 9.60267 23.9573 9.496 23.872H9.432C9.38933 23.8507 9.32533 23.7973 9.24 23.712C9.21867 23.6693 9.19733 23.6373 9.176 23.616C9.15467 23.5947 9.144 23.5733 9.144 23.552H9.048C9.00533 23.4667 8.984 23.4133 8.984 23.392H9.144C9.12267 23.328 9.112 23.2427 9.112 23.136V23.072H8.504V22.432H9.4V21.952H8.344V21.632H8.504V20.992H8.888V20.512H8.76V19.712H9.048V19.072H8.056V18.912H8.856V18.432H8.568V18.112H9.336V17.952H8.952V17.312H8.728V16.832H8.76V15.872H8.696V15.232H8.888V14.592H8.984V13.952H8.76V13.312H8.472V13.152H8.408V12.512H8.44V12.032H8.76V11.072H8.664V10.912H8.568V10.272H8.92V10.112H8.792V9.632H8.92V9.312H8.888V8.992H7.992V8.352H4.44V7.872H6.072V7.232H8.984V6.912H7.768V6.272H7.032V5.792H7.512V5.632H6.84V4.992H9.304V4.832H8.984V4.352H8.248V3.872H7.224V3.232H9.528V2.752H8.408V2.592H8.184V2.432H8.76C8.76 2.34667 8.78133 2.24 8.824 2.112H8.472C8.49333 2.048 8.52533 1.99467 8.568 1.952C8.61067 1.888 8.65333 1.83467 8.696 1.792H10.648C10.8187 1.664 11 1.6 11.192 1.6H20.888C21.8267 1.6 22.6907 1.664 23.48 1.792H21.56C21.816 1.83467 22.0613 1.888 22.296 1.952C22.552 1.99467 22.7867 2.048 23 2.112H23.384C23.5547 2.15467 23.7147 2.208 23.864 2.272C24.0347 2.31467 24.1947 2.368 24.344 2.432H23.768C23.832 2.45333 23.896 2.47467 23.96 2.496C24.024 2.51733 24.088 2.54933 24.152 2.592H24.344L24.696 2.752H25.848L26.68 3.232H24.344C24.5147 3.31733 24.664 3.424 24.792 3.552C24.92 3.65867 25.048 3.76533 25.176 3.872H26.2L26.68 4.352H27.416C27.48 4.43733 27.544 4.52267 27.608 4.608C27.6933 4.672 27.7573 4.74667 27.8 4.832H28.12C28.184 4.896 28.2267 4.94933 28.248 4.992H25.784C25.848 5.07733 25.912 5.184 25.976 5.312C26.04 5.41866 26.104 5.52533 26.168 5.632H26.84L26.904 5.792H26.456L26.648 6.272H27.416L27.608 6.912H28.824L28.92 7.232H26.008C26.0507 7.31733 26.072 7.424 26.072 7.552C26.0933 7.65867 26.1147 7.76533 26.136 7.872H30.232C30.2533 7.95733 30.264 8.04267 30.264 8.128C30.264 8.192 30.2747 8.26667 30.296 8.352H30.136C30.1573 8.45867 30.168 8.56533 30.168 8.672C30.1893 8.77867 30.2 8.88533 30.2 8.992H28.952V9.632ZM20.92 10.112H20.184L20.28 9.632H20.632V9.312C20.632 9.26933 20.632 9.216 20.632 9.152C20.632 9.088 20.6213 9.03467 20.6 8.992H21.848C21.8267 8.88533 21.8053 8.77867 21.784 8.672C21.7627 8.544 21.7307 8.43733 21.688 8.352H21.816C21.7733 8.18133 21.6667 8.02133 21.496 7.872H17.4C17.144 7.65867 16.8347 7.552 16.472 7.552H14.232V7.872H12.6V8.352H16.152V8.992H17.048V9.312H17.08V9.632H16.952V10.112H17.08V10.272H16.728V10.912H16.824V11.072H16.92V11.104H19.16C19.288 11.104 19.384 11.0933 19.448 11.072H19.896C19.9813 11.0507 20.056 11.0293 20.12 11.008C20.184 10.9653 20.248 10.9333 20.312 10.912H19.992C20.248 10.7627 20.44 10.5493 20.568 10.272H20.856C20.8987 10.1867 20.92 10.1333 20.92 10.112ZM49.4025 21.152H48.0905C47.9625 21.3653 47.8132 21.5787 47.6425 21.792H48.2185C48.1972 21.8347 48.1545 21.888 48.0905 21.952H46.6825C46.5972 22.0373 46.5118 22.1227 46.4265 22.208C46.3625 22.272 46.2772 22.3467 46.1705 22.432H46.1385C46.0318 22.5173 45.9145 22.6027 45.7865 22.688C45.6798 22.752 45.5625 22.8267 45.4345 22.912H44.8585C44.6665 23.04 44.4532 23.1573 44.2185 23.264C43.9838 23.3493 43.7492 23.4453 43.5145 23.552H43.3865C43.3225 23.5733 43.2478 23.5947 43.1625 23.616C43.0985 23.6373 43.0132 23.6693 42.9065 23.712H46.5545C46.4692 23.7333 46.3732 23.7547 46.2665 23.776C46.1812 23.7973 46.0852 23.8293 45.9785 23.872H44.3785C44.1012 23.936 43.8132 23.9893 43.5145 24.032C43.2158 24.096 42.9065 24.1493 42.5865 24.192H41.6265C41.2852 24.2347 40.9225 24.2667 40.5385 24.288C40.1545 24.3093 39.7492 24.32 39.3225 24.32C38.9172 24.32 38.5332 24.3093 38.1705 24.288C37.8292 24.2667 37.4985 24.2347 37.1785 24.192H38.1065C37.8078 24.1493 37.5198 24.096 37.2425 24.032C36.9652 23.9893 36.6985 23.936 36.4425 23.872H38.0425L37.4985 23.712H33.8505C33.7865 23.6693 33.7118 23.6373 33.6265 23.616C33.5625 23.5947 33.4878 23.5733 33.4025 23.552H33.4985C33.2638 23.4453 33.0292 23.3387 32.7945 23.232C32.5812 23.1253 32.3678 23.0187 32.1545 22.912H32.7305C32.6025 22.8267 32.4745 22.752 32.3465 22.688C32.2398 22.6027 32.1332 22.5173 32.0265 22.432H32.0905C31.9838 22.3467 31.8878 22.272 31.8025 22.208C31.7172 22.1227 31.6318 22.0373 31.5465 21.952H32.9225C32.9012 21.9093 32.8798 21.8773 32.8585 21.856C32.8372 21.8347 32.8158 21.8133 32.7945 21.792H32.1865C32.1012 21.6853 32.0158 21.5787 31.9305 21.472C31.8452 21.3653 31.7598 21.2587 31.6745 21.152H33.0185C32.9332 21.0453 32.8692 20.9387 32.8265 20.832C32.7838 20.704 32.7412 20.5973 32.6985 20.512H32.0905C32.0478 20.4267 32.0265 20.3733 32.0265 20.352H31.0345L30.9385 20.032H30.2025C30.1812 19.968 30.1705 19.872 30.1705 19.744C30.1705 19.5733 30.1812 19.456 30.2025 19.392H30.4265C30.5332 19.136 30.7038 18.976 30.9385 18.912H30.8745C30.9172 18.8907 30.9918 18.88 31.0985 18.88H36.7945C36.8158 18.88 36.8372 18.8907 36.8585 18.912C36.9012 18.912 36.9332 18.912 36.9545 18.912H37.0185C37.1892 18.9547 37.3385 19.0187 37.4665 19.104C37.6158 19.1893 37.7652 19.2853 37.9145 19.392H37.7225C37.8932 19.4987 38.0745 19.6053 38.2665 19.712C38.4585 19.7973 38.6825 19.84 38.9385 19.84C39.1092 19.84 39.2692 19.808 39.4185 19.744C39.5678 19.6587 39.6532 19.5413 39.6745 19.392H39.7705V19.36C39.7705 19.168 39.7278 19.0187 39.6425 18.912C39.5572 18.784 39.4185 18.6773 39.2265 18.592H38.8425C38.6292 18.4853 38.3412 18.3787 37.9785 18.272C37.6372 18.1653 37.1572 18.0587 36.5385 17.952H36.8265L36.3145 17.856C36.1438 17.8133 35.9732 17.7813 35.8025 17.76C35.6318 17.7173 35.4612 17.6747 35.2905 17.632H35.4185L34.8745 17.472H34.9385C34.6612 17.3867 34.3945 17.2907 34.1385 17.184C33.8825 17.0773 33.6372 16.96 33.4025 16.832H33.5305L32.7625 16.352H32.6985C32.5492 16.2453 32.4105 16.1387 32.2825 16.032C32.1758 15.9253 32.0692 15.8187 31.9625 15.712H31.2905C31.2692 15.6693 31.2478 15.6373 31.2265 15.616C31.2052 15.5947 31.1838 15.5733 31.1625 15.552H31.4505C31.3865 15.488 31.3438 15.4347 31.3225 15.392H30.4265L30.0745 14.912H31.4505L31.2585 14.592H30.8105C30.7038 14.3573 30.6185 14.144 30.5545 13.952H30.7465C30.7465 13.9093 30.7358 13.8773 30.7145 13.856C30.7145 13.8347 30.7145 13.8133 30.7145 13.792H32.2185C32.2185 13.7067 32.1972 13.6 32.1545 13.472H29.3385C29.3385 13.3867 29.3385 13.312 29.3385 13.248C29.3172 13.1627 29.2958 13.0773 29.2745 12.992H29.3065L29.2745 12.672H31.4185C31.3972 12.6293 31.3865 12.576 31.3865 12.512C31.3865 12.4267 31.3865 12.352 31.3865 12.288C31.4078 12.2027 31.4185 12.1173 31.4185 12.032H29.9145L29.9465 11.712H31.3865L31.4825 11.392H30.8425C30.8638 11.3493 30.8852 11.296 30.9065 11.232C30.9278 11.168 30.9492 11.1147 30.9705 11.072H30.7145C30.7572 10.9867 30.7998 10.912 30.8425 10.848C30.8852 10.7627 30.9172 10.6773 30.9385 10.592H31.0665L31.2585 10.272H31.2265C31.2692 10.1867 31.3225 10.112 31.3865 10.048C31.4505 9.96267 31.5145 9.87733 31.5785 9.792C31.6425 9.70667 31.7065 9.632 31.7705 9.568C31.8345 9.48267 31.9092 9.39733 31.9945 9.312H31.9305L32.0905 9.152H32.0585C32.0798 9.10933 32.1012 9.07733 32.1225 9.056C32.1652 9.03467 32.1972 9.01333 32.2185 8.992H32.2825L32.6665 8.672C32.7092 8.62933 32.7412 8.59733 32.7625 8.576C32.8052 8.55467 32.8478 8.53333 32.8905 8.512H32.2825C32.6452 8.27733 33.0398 8.064 33.4665 7.872H34.4585C34.5225 7.82933 34.5865 7.79733 34.6505 7.776C34.7145 7.75467 34.7892 7.73333 34.8745 7.712H32.6985C32.7838 7.66933 32.8585 7.63733 32.9225 7.616C33.0078 7.59467 33.0932 7.57333 33.1785 7.552H34.5545C35.0878 7.38133 35.6532 7.25333 36.2505 7.168C36.8692 7.08267 37.5198 7.04 38.2025 7.04C38.9065 7.04 39.5678 7.08267 40.1865 7.168C40.8052 7.25333 41.3812 7.38133 41.9145 7.552H40.5385C40.6238 7.57333 40.6985 7.59467 40.7625 7.616C40.8478 7.63733 40.9332 7.66933 41.0185 7.712H43.1625L43.6105 7.872H42.6185C42.8532 7.95733 43.0772 8.064 43.2905 8.192C43.5038 8.29867 43.7065 8.40533 43.8985 8.512H44.5065L44.7625 8.672H44.7945C44.8798 8.71467 44.9545 8.768 45.0185 8.832C45.1038 8.896 45.1785 8.94933 45.2425 8.992H45.2105L45.4025 9.152H45.4345L45.6265 9.312H45.6905C45.8825 9.46133 46.0425 9.62133 46.1705 9.792C46.3412 9.94133 46.4692 10.1013 46.5545 10.272H46.5865L46.7785 10.592H46.6185C46.6612 10.6773 46.7038 10.7627 46.7465 10.848C46.7892 10.912 46.8212 10.9867 46.8425 11.072H47.0665L47.1625 11.392H47.7705L47.8025 11.616V11.712H48.3465C48.3465 11.7973 48.3252 11.904 48.2825 12.032C48.1332 12.3307 47.9198 12.48 47.6425 12.48H42.2665C42.0532 12.48 41.8505 12.4373 41.6585 12.352C41.4878 12.2453 41.3172 12.1387 41.1465 12.032C40.9972 11.9253 40.8265 11.8187 40.6345 11.712H40.0905C39.8772 11.584 39.6425 11.52 39.3865 11.52C39.1732 11.52 39.0025 11.584 38.8745 11.712H37.4665C37.3598 11.8187 37.3065 11.9253 37.3065 12.032H38.8105C38.8105 12.1387 38.8318 12.2453 38.8745 12.352C38.9172 12.4587 39.0132 12.5653 39.1625 12.672H37.0505C37.1572 12.7147 37.2745 12.768 37.4025 12.832C37.5305 12.896 37.6905 12.9493 37.8825 12.992H37.8505C38.1065 13.0773 38.4265 13.152 38.8105 13.216C39.2158 13.28 39.6852 13.3547 40.2185 13.44C40.2612 13.44 40.2932 13.4507 40.3145 13.472C40.3572 13.472 40.3892 13.472 40.4105 13.472H43.2265C43.4825 13.5147 43.7278 13.568 43.9625 13.632C44.2185 13.6747 44.4532 13.728 44.6665 13.792H43.1625C43.2478 13.8133 43.3225 13.8347 43.3865 13.856C43.4718 13.8773 43.5572 13.9093 43.6425 13.952H43.4505C43.7278 14.0373 43.9732 14.1333 44.1865 14.24C44.4212 14.3467 44.6452 14.464 44.8585 14.592H45.3385L45.8505 14.912H44.4745C44.5812 14.9973 44.6878 15.0827 44.7945 15.168C44.9012 15.232 44.9972 15.3067 45.0825 15.392H45.9785L46.1385 15.552H45.8505L46.0105 15.712H46.6505C46.8852 15.9467 47.0558 16.16 47.1625 16.352H47.2265C47.2905 16.4373 47.3438 16.5227 47.3865 16.608C47.4292 16.672 47.4718 16.7467 47.5145 16.832H47.3865C47.4292 16.9387 47.4718 17.0453 47.5145 17.152C47.5785 17.2587 47.6212 17.3653 47.6425 17.472H47.5465L47.6105 17.632H47.4825C47.5038 17.6747 47.5145 17.728 47.5145 17.792C47.5145 17.856 47.5252 17.9093 47.5465 17.952H47.2585C47.3225 18.1653 47.3545 18.3787 47.3545 18.592H47.7705V18.816C47.7705 18.9013 47.7598 18.9973 47.7385 19.104C47.7385 19.1893 47.7385 19.2853 47.7385 19.392H47.6425C47.6212 19.4987 47.5998 19.6053 47.5785 19.712C47.5785 19.8187 47.5572 19.9253 47.5145 20.032H48.2505C48.2505 20.1387 48.2185 20.2453 48.1545 20.352H49.1785C49.1358 20.4373 49.1145 20.4907 49.1145 20.512H49.7225C49.6798 20.6187 49.6265 20.7253 49.5625 20.832C49.5198 20.9387 49.4665 21.0453 49.4025 21.152ZM68.4883 8.672H65.8963L65.8323 8.832H68.5203L68.2323 9.472H66.9843L66.7283 10.112H67.4003L67.1443 10.752H66.0883L65.9603 11.072H66.7603L66.6323 11.392H66.4403L66.3763 11.552H66.3443L66.1203 12.032H66.4403L66.2483 12.512H63.9763L63.8162 12.832H65.5763L65.5123 12.992H62.6323L62.5043 13.312H62.2483L61.9603 13.952H66.1843L66.1203 14.112H65.3843L65.2243 14.432H65.4483L65.3843 14.592H65.1923L64.9043 15.232L64.7123 15.712H64.3283L64.1042 16.192H64.3603L64.1363 16.672H64.2323L64.1683 16.832H64.1363L64.0083 17.152H64.1683L64.0403 17.472H63.8803L63.7523 17.792H63.7203L63.5283 18.272H63.7203L63.6562 18.432H63.4643L63.2403 18.912H62.0563L61.7683 19.552H62.5363L62.4083 19.872H63.3363L63.0803 20.512H62.0243L61.8963 20.832H62.4083L62.1523 21.472H61.9923L61.7043 22.112H61.9283L61.8003 22.432H61.7363L61.5763 22.752H61.5123L61.2883 23.232H61.3843L61.1603 23.712H60.9043L60.6803 24.192H60.2323L60.0723 24.512H62.4083L62.1523 25.152H59.7843L59.4963 25.792H60.8083L60.5203 26.432H61.8323L61.5443 27.072H61.6083L61.3523 27.712H57.3203L57.1603 28.032H58.0883L57.9603 28.352H59.3683L59.2083 28.672H56.0083L55.8483 28.992H57.5123L57.3843 29.312C57.2776 29.5893 57.0963 29.8027 56.8403 29.952H55.4963C55.3256 30.0373 55.1443 30.08 54.9523 30.08H49.7043C49.5123 30.08 49.3736 30.0373 49.2883 29.952H50.6003C50.4083 29.8027 50.3123 29.6213 50.3123 29.408V29.312C50.3123 29.2267 50.3229 29.152 50.3443 29.088L50.3763 28.992H48.7122L48.8723 28.672H52.0723L52.2003 28.352H50.7923L50.9203 28.032H50.0243L50.1523 27.712H54.1843L54.4723 27.072H54.4083L54.6643 26.432H53.3523L53.6083 25.792H52.3283L52.5843 25.152H54.9523L55.2083 24.512H52.8723L53.0003 24.192H53.4803L53.6723 23.712H53.9603L54.1523 23.232H54.0883L54.2163 22.944L54.1203 22.752H54.1843L54.0563 22.432H54.1523L53.9923 22.112H53.7683L53.5123 21.472H53.6723L53.3843 20.832H52.8723L52.7123 20.512H53.7683L53.5123 19.872H52.5523L52.4243 19.552H51.6562L51.4003 18.912H52.5843L52.3923 18.432H52.5843L52.5203 18.272H52.2963L52.1043 17.792H52.1363L52.0083 17.472H52.1363L52.0083 17.152H51.8163L51.6883 16.832H51.7203L51.6562 16.672H51.5603L51.3683 16.192H51.1443L50.9203 15.712H51.3043L51.1123 15.232H50.6643L50.4083 14.592H50.7603L50.6643 14.432H51.1763L51.0163 14.112H50.2163L50.1203 13.952H50.0883L49.8003 13.312H45.8002L45.6402 12.992H48.0403L47.9763 12.832H48.1043L47.9443 12.512H49.5443L49.3203 12.032H49.6083L49.4163 11.552H49.4803L49.4163 11.392H49.3843L49.2563 11.072H49.1603L49.0003 10.752H49.3203L49.0643 10.112H48.2003L47.9123 9.472H48.5843L48.3283 8.832H46.6003L46.5362 8.672H49.0643L48.9363 8.352C48.9149 8.288 48.9043 8.21333 48.9043 8.128C48.9043 8.08533 48.9149 8.05333 48.9363 8.032H49.3843C49.4909 7.584 49.7469 7.36 50.1523 7.36H55.5603C55.8589 7.36 56.0829 7.43467 56.2323 7.584C56.3816 7.712 56.4883 7.86133 56.5523 8.032H56.1042C56.1042 8.05333 56.1042 8.07467 56.1042 8.096C56.1256 8.096 56.1363 8.10667 56.1363 8.128L56.2323 8.352L56.3283 8.672H53.7683L53.8323 8.832H55.5603L55.8163 9.472H55.1443L55.3683 10.112H56.2323L56.4563 10.752H56.1363L56.2643 11.072H56.3603L56.5523 11.552H56.4883L56.6483 12.032H56.3923L56.5523 12.512H54.9843L55.0803 12.832H54.9523L55.0163 12.992H52.6483L52.7443 13.312H55.5603L55.6883 12.992H58.5683L58.6323 12.832H56.8723L57.0003 12.512H59.2403L59.4323 12.032H59.1123L59.3043 11.552H59.3363L59.4003 11.392H59.5923L59.6883 11.072H58.8883L59.0163 10.752H60.0403L60.2963 10.112H59.5923L59.8483 9.472H61.0963L61.3203 8.832H58.6323L58.6963 8.672H61.2883L61.4163 8.352L61.4803 8.128C61.5016 8.10667 61.5123 8.07467 61.5123 8.032H60.4563C60.5629 7.86133 60.6909 7.712 60.8403 7.584C61.0109 7.43467 61.2349 7.36 61.5123 7.36H66.8563C67.0483 7.36 67.2189 7.43467 67.3683 7.584C67.5176 7.712 67.5923 7.86133 67.5923 8.032H68.6483C68.6483 8.16 68.6376 8.26667 68.6163 8.352L68.4883 8.672ZM59.2403 14.112L59.2723 13.952H57.0642L57.1283 14.112H57.9283L58.0563 14.432H57.5763L57.6403 14.592H57.2883L57.5123 15.232H57.9603L58.0243 15.424L58.0883 15.232L58.3123 14.592H58.5363L58.6003 14.432H58.3763L58.4723 14.112H59.2403ZM87.904 23.392C87.8613 23.6053 87.7547 23.7653 87.584 23.872H89.664C89.5573 23.9573 89.4187 24 89.248 24H82.528C82.336 24 82.1547 23.9573 81.984 23.872H76.832C76.7253 23.9573 76.576 24 76.384 24H70.784C70.592 24 70.4427 23.9573 70.336 23.872H74.72C74.528 23.744 74.4107 23.584 74.368 23.392H69.856C69.8347 23.328 69.824 23.2427 69.824 23.136V22.752H68.8V22.432H69.568V21.792H69.184V21.152H69.408V20.672H69.6V20.352H69.472V20.032H68.928V19.552H69.376V19.232H69.824V18.592H69.28V18.272H69.184V18.112H69.472V17.792H69.44V17.632H69.216V17.152H70.048V16.672H70.88V16.512H69.92V16.032H69.472V15.552H69.344V15.232H69.536V14.592H69.408V13.952H69.504V13.792H69.44V13.632H69.344V13.472H69.28V12.832H69.12V12.672H70.144V12.192H69.216V12.032H70.656V11.552H68.864V11.392H69.824V11.232H72.064V10.752H68.864V10.112H69.408V9.472H69.696V9.312H69.792V8.832H69.184V8.512H69.536V7.872H69.248V7.392H69.568V6.752H69.504V6.272H69.248V5.632H69.888V5.312H69.408V5.152H68.544V4.992H67.744V4.352H68.192V4.192H69.056V3.712H66.912V3.552H70.944V3.392H70.464V3.072H64.992V2.912H64.192V2.272H71.456V2.112H68.928C68.928 2.02667 68.9493 1.92 68.992 1.792H66.528C66.6773 1.45067 66.9333 1.28 67.296 1.28H72.896C73.28 1.28 73.5467 1.45067 73.696 1.792H76.16C76.224 1.87733 76.256 1.984 76.256 2.112H78.784V2.272H71.52V2.912H72.32V3.072H77.792V3.392H78.272V3.552H74.24V3.712H76.384V4.192H75.52V4.352H75.072V4.992H75.872V5.152H76.736V5.312H77.216V5.632H76.576V6.272H76.832V6.752H76.896V7.392H76.576V7.872H76.864V8.512H76.512V8.832H77.12V9.312H77.024V9.472H76.736V10.112H76.192V10.752H79.232L79.616 10.112H78.016L78.432 9.472H78.624L78.72 9.312H78.56L78.848 8.832H79.232L79.424 8.512H79.36L79.744 7.904V7.872H79.456C79.4987 7.808 79.5627 7.72267 79.648 7.616C79.7547 7.50933 79.8933 7.43467 80.064 7.392H80.224C80.288 7.37067 80.384 7.36 80.512 7.36H86.976C87.0827 7.36 87.1573 7.37067 87.2 7.392H87.04C87.2747 7.456 87.4453 7.616 87.552 7.872H87.84C87.8613 7.91467 87.872 7.95733 87.872 8C87.8933 8.04267 87.904 8.08533 87.904 8.128C87.904 8.256 87.8613 8.384 87.776 8.512H87.84C87.84 8.53333 87.8187 8.56533 87.776 8.608L87.616 8.832H87.264L86.912 9.312H87.104L86.976 9.472H86.784L86.336 10.112H87.904L87.456 10.752L87.104 11.232H87.392L87.296 11.392H85.632L85.504 11.552H84.224L83.872 12.032H84.384L84.288 12.192H85.76L85.536 12.512L85.408 12.672H84.416L84.288 12.832H84.448L84 13.472H84.064L83.936 13.632H84.064L83.936 13.792H84L83.904 13.952H83.808L83.36 14.592H83.488L83.296 14.848L83.552 15.232H83.36L83.552 15.552H83.68L84 16.032H84.448L84.768 16.512H85.728L85.856 16.672H84.992L85.312 17.152H84.48L84.8 17.632H85.024L85.12 17.792H85.152L85.376 18.112H85.152L85.248 18.272H85.728L85.92 18.592H86.304L86.72 19.232H86.112L86.304 19.552H86.272L86.56 20.032H86.816L87.008 20.352H86.752L86.976 20.672H87.296L87.584 21.152H87.456L87.872 21.792H87.712L88.128 22.432H88.896L89.12 22.752H90.88L90.912 22.816C90.9973 22.944 91.04 23.0827 91.04 23.232V23.392H87.904ZM77.152 11.392H76.192V11.552H77.344L77.44 11.392H79.104L79.2 11.232H77.152V11.392ZM77.472 12.192V12.512L77.664 12.192H77.472ZM82.528 23.392L82.144 22.752H80.384L80.192 22.432H79.424L79.04 21.792H79.2L78.816 21.152H78.944L78.656 20.672H78.336L78.144 20.352H78.4L78.208 20.032H77.984L77.696 19.552H77.76L77.568 19.232H78.144L77.76 18.592H77.408L77.216 18.272H76.768L76.672 18.112H76.512V18.272H76.608V18.592H77.152V19.232H76.704V19.552H76.256V20.032H76.8V20.352H76.928V20.672H76.736V21.152H76.512V21.792H76.896V22.432H76.128V22.752H77.152V23.136C77.152 23.2427 77.1413 23.328 77.12 23.392H82.528ZM89.8425 4.672V4.032H89.8105V3.552H90.0985V3.392H90.2905V2.752H90.1305V2.272H90.1625V1.632H90.2905V1.152H90.2265V0.863998C90.2265 0.693333 90.2478 0.576 90.2905 0.511999H90.6105L90.7065 0.351999H90.4505C90.6212 0.117332 90.8558 -1.90735e-06 91.1545 -1.90735e-06H96.5625C96.8612 -1.90735e-06 97.0958 0.117332 97.2665 0.351999H97.5225L97.6185 0.511999H97.2665C97.3305 0.597333 97.3625 0.714666 97.3625 0.863998V1.152H97.4265V1.632H97.2985V2.272H97.2665V2.752H97.4265V3.392H97.2345V3.552H96.9465V4.032H96.9785V4.672H97.2025V4.736C97.2025 4.928 97.1278 5.12 96.9785 5.312H96.5945C96.4452 5.504 96.2318 5.6 95.9545 5.6H90.5465C90.2692 5.6 90.0452 5.504 89.8745 5.312H90.2585C90.1305 5.14133 90.0665 4.94933 90.0665 4.736V4.672H89.8425ZM96.4345 11.392H99.4425V12.032H98.3545V12.352H97.1385V12.992H98.0665V13.152H97.4585V13.472H97.5545V13.792H97.7145V14.272H96.1145V14.752H97.1705V15.232H96.9785V15.552H97.5225V16.032H97.6505V16.512H97.4585V16.992H97.6185V17.312H97.4585V17.952H97.3945V18.432H97.2665V18.912H97.3945V19.232H97.4585V19.872H97.3305V20.192H97.4905V20.512H97.4585V20.992H97.5865V21.472H97.6825V21.632H97.4585V22.272H97.0105V22.912H97.3305V23.136C97.3305 23.2427 97.3198 23.328 97.2985 23.392H97.0745C97.0105 23.6053 96.8932 23.7653 96.7225 23.872H97.3625C97.2558 23.9573 97.0958 24 96.8825 24H91.1545C90.9625 24 90.8132 23.9573 90.7065 23.872H90.0665C89.8745 23.7653 89.7465 23.6053 89.6825 23.392H89.9065C89.8852 23.328 89.8745 23.2427 89.8745 23.136V22.912H89.5545V22.272H90.0025V21.632H90.2265V21.472H90.1305V20.992H90.0025V20.512H90.0345V20.192H89.8745V19.872H90.0025V19.232H89.9385V18.912H89.8105V18.432H89.9385V17.952H90.0025V17.312H90.1625V16.992H90.0025V16.512H90.1945V16.032H90.0665V15.552H89.5225V15.232H89.7145V14.752H88.6585V14.272H90.2585V13.792H90.0985V13.472H90.0025V13.152H90.6105V12.992H89.6825V12.352H90.8985V12.032H91.9865V11.392H88.9785V11.072H91.6345V10.432H90.6745V9.952H91.2505V9.312H90.2265V9.152H90.0025V8.832H89.8105V8.352H90.0345V8.224C90.0345 7.98933 90.0878 7.81867 90.1945 7.712H90.2265C90.3972 7.47733 90.6318 7.36 90.9305 7.36H96.6585C96.9572 7.36 97.1918 7.47733 97.3625 7.712H97.2985C97.4265 7.84 97.4905 8.01067 97.4905 8.224V8.352H97.2665V8.832H97.4585V9.152H97.6825V9.312H98.7065V9.952H98.1305V10.432H99.0905V11.072H96.4345V11.392ZM118.452 13.632H120.628C120.628 13.6533 120.618 13.6747 120.596 13.696C120.575 13.7173 120.554 13.7493 120.532 13.792H119.796C119.626 14.0053 119.391 14.112 119.092 14.112H112.852C112.554 14.112 112.319 14.0053 112.148 13.792H112.884L112.788 13.632H110.58L110.484 13.472C110.463 13.3867 110.41 13.28 110.324 13.152H109.78C109.652 12.9173 109.514 12.7573 109.364 12.672H110.164C109.994 12.5653 109.791 12.512 109.556 12.512C109.3 12.512 109.087 12.5653 108.916 12.672H108.244C108.074 12.7573 107.935 12.9173 107.828 13.152H107.54C107.498 13.2373 107.455 13.344 107.412 13.472H109.14C109.119 13.5147 109.108 13.568 109.108 13.632H109.972C109.951 13.6747 109.94 13.728 109.94 13.792H110.996C110.975 13.8347 110.964 13.888 110.964 13.952C110.964 14.016 110.954 14.0693 110.932 14.112H111.06V14.272H109.812V14.592H105.812V14.752H111.956C111.935 14.8587 111.924 14.9653 111.924 15.072C111.924 15.1787 111.924 15.2853 111.924 15.392H106.26V15.552H108.532V15.712H107.924V16.352H106.196C106.196 16.4373 106.196 16.5227 106.196 16.608C106.196 16.672 106.207 16.7467 106.228 16.832V17.152H108.148C108.148 17.3013 108.159 17.408 108.18 17.472H106.42C106.463 17.7493 106.506 17.9627 106.548 18.112H106.196C106.324 18.4107 106.506 18.624 106.74 18.752H107.796C107.967 18.816 108.148 18.848 108.34 18.848C108.575 18.848 108.767 18.816 108.916 18.752H109.364C109.556 18.6453 109.738 18.432 109.908 18.112H109.044L109.14 17.888C109.183 17.8027 109.226 17.728 109.268 17.664C109.332 17.5787 109.386 17.5147 109.428 17.472H111.668C111.86 17.3227 112.074 17.248 112.308 17.248H118.548C118.762 17.248 118.964 17.3227 119.156 17.472H116.916C117.13 17.6427 117.215 17.856 117.172 18.112H118.036C118.015 18.1973 117.994 18.2933 117.972 18.4C117.972 18.5067 117.951 18.624 117.908 18.752H117.428L117.332 19.072H119.38L119.316 19.232H118.644L118.58 19.392H115.028L114.932 19.552H118.804L118.452 20.192H118.772L118.676 20.352H116.276C116.212 20.4587 116.138 20.5653 116.052 20.672C115.988 20.7787 115.914 20.8853 115.828 20.992H115.252C115.231 21.0133 115.21 21.0347 115.188 21.056C115.167 21.0773 115.146 21.1093 115.124 21.152H117.332C117.311 21.1733 117.29 21.1947 117.268 21.216C117.247 21.2373 117.226 21.2693 117.204 21.312H115.604C115.583 21.3333 115.562 21.3547 115.54 21.376C115.519 21.3973 115.487 21.4293 115.444 21.472H116.788L116.468 21.792H116.308L116.148 21.952H116.532L116.148 22.272H116.724C116.618 22.3573 116.5 22.4427 116.372 22.528C116.266 22.592 116.148 22.6667 116.02 22.752H116.66L116.404 22.912H115.7L115.124 23.232H115.316C114.975 23.424 114.591 23.584 114.164 23.712H113.62C113.428 23.776 113.236 23.84 113.044 23.904C112.852 23.9467 112.66 23.9893 112.468 24.032H112.18C112.031 24.0533 111.882 24.0747 111.732 24.096C111.583 24.1387 111.434 24.1707 111.284 24.192H111.924C111.626 24.2347 111.316 24.2667 110.996 24.288C110.676 24.3093 110.346 24.32 110.004 24.32C109.684 24.32 109.375 24.3093 109.076 24.288C108.778 24.2667 108.479 24.2347 108.18 24.192H107.508C107.359 24.1707 107.21 24.1387 107.06 24.096C106.932 24.0747 106.794 24.0533 106.644 24.032H106.932C106.74 23.9893 106.548 23.9467 106.356 23.904C106.164 23.84 105.983 23.776 105.812 23.712H106.356C105.951 23.584 105.578 23.424 105.236 23.232H105.012C104.927 23.1893 104.831 23.1467 104.724 23.104C104.639 23.04 104.554 22.976 104.468 22.912H105.14L104.884 22.752H104.244L103.604 22.272H103.06C102.996 22.2293 102.932 22.176 102.868 22.112C102.804 22.048 102.751 21.9947 102.708 21.952H102.292L102.132 21.792H102.292L101.972 21.472H100.66C100.596 21.408 100.554 21.3547 100.532 21.312H102.132C102.068 21.248 102.026 21.1947 102.004 21.152H99.7643C99.7429 21.1093 99.7003 21.056 99.6363 20.992H100.212C100.127 20.8853 100.052 20.7787 99.9883 20.672C99.9243 20.5653 99.8603 20.4587 99.7963 20.352H102.196L102.1 20.192H101.78C101.716 20.0853 101.652 19.9787 101.588 19.872C101.546 19.7653 101.503 19.6587 101.46 19.552H97.6202L97.5562 19.392H101.108L101.044 19.232H101.716L101.652 19.072H99.6043L99.5083 18.752H98.4522C98.4309 18.6453 98.4096 18.5387 98.3882 18.432C98.3669 18.3253 98.3456 18.2187 98.3242 18.112H98.6442L98.5482 17.472H100.308V17.152H98.3882V16.992C98.3669 16.8853 98.3562 16.7787 98.3562 16.672C98.3562 16.5653 98.3562 16.4587 98.3562 16.352H100.084V15.712H100.692V15.552H98.4202V15.392H104.084V14.752H97.9722V14.592H101.972V14.272H103.22V14.112H103.092C103.114 14.0693 103.124 14.016 103.124 13.952C103.124 13.888 103.124 13.8347 103.124 13.792H102.1V13.632H101.236C101.236 13.568 101.247 13.5147 101.268 13.472H99.5403C99.5829 13.344 99.6043 13.2373 99.6043 13.152H99.9243L100.02 12.672H100.692L100.884 12.032H100.948C100.97 11.9467 101.002 11.872 101.044 11.808C101.087 11.7227 101.119 11.6373 101.14 11.552H100.98C101.023 11.4453 101.066 11.3387 101.108 11.232C101.172 11.104 101.236 10.9973 101.3 10.912H101.108C101.151 10.8267 101.194 10.752 101.236 10.688C101.3 10.6027 101.364 10.5173 101.428 10.432H101.46C101.546 10.3253 101.631 10.2187 101.716 10.112C101.802 9.984 101.887 9.87733 101.972 9.792H102.004C102.132 9.62133 102.292 9.46133 102.484 9.312H102.324L102.516 9.152H102.452L102.644 8.992H103.828C103.871 8.94933 103.914 8.91733 103.956 8.896C103.999 8.87467 104.031 8.85333 104.052 8.832H103.348C103.391 8.78933 103.434 8.75733 103.476 8.736C103.519 8.71467 103.551 8.69333 103.572 8.672H103.316C103.7 8.416 104.074 8.20267 104.436 8.032H105.076C105.204 7.968 105.332 7.91467 105.46 7.872C105.588 7.808 105.716 7.75467 105.844 7.712H105.108C105.194 7.66933 105.268 7.63733 105.332 7.616C105.418 7.59467 105.503 7.57333 105.588 7.552H105.556C105.663 7.50933 105.759 7.47733 105.844 7.456C105.951 7.43467 106.047 7.41333 106.132 7.392H106.036C106.975 7.15733 107.956 7.04 108.98 7.04C109.556 7.04 110.1 7.072 110.612 7.136C111.124 7.2 111.604 7.28533 112.052 7.392H112.148C112.255 7.41333 112.351 7.43467 112.436 7.456C112.543 7.47733 112.639 7.50933 112.724 7.552H112.756C112.842 7.57333 112.916 7.59467 112.98 7.616C113.066 7.63733 113.151 7.66933 113.236 7.712H113.972C114.292 7.81867 114.559 7.92533 114.772 8.032H114.1C114.314 8.11733 114.516 8.224 114.708 8.352C114.9 8.45867 115.092 8.56533 115.284 8.672H115.54C115.583 8.69333 115.626 8.71467 115.668 8.736C115.711 8.75733 115.743 8.78933 115.764 8.832H116.468C116.511 8.85333 116.543 8.87467 116.564 8.896C116.607 8.91733 116.65 8.94933 116.692 8.992H115.508L115.7 9.152H115.764L115.956 9.312H116.084C116.191 9.39733 116.287 9.48267 116.372 9.568C116.458 9.632 116.543 9.70667 116.628 9.792H116.596C116.703 9.89867 116.799 10.0053 116.884 10.112C116.991 10.2187 117.087 10.3253 117.172 10.432H117.14C117.204 10.5173 117.268 10.6027 117.332 10.688C117.396 10.752 117.45 10.8267 117.492 10.912H117.684C117.77 11.0187 117.844 11.1253 117.908 11.232C117.972 11.3387 118.026 11.4453 118.068 11.552H118.26C118.303 11.6373 118.346 11.7227 118.388 11.808C118.431 11.872 118.463 11.9467 118.484 12.032H118.452C118.495 12.1387 118.538 12.2453 118.58 12.352C118.623 12.4587 118.655 12.5653 118.676 12.672H117.876L117.972 13.152H118.516V13.472L118.452 13.632ZM138.967 23.392C138.924 23.6053 138.817 23.7653 138.647 23.872H140.727C140.62 23.9573 140.481 24 140.311 24H133.591C133.399 24 133.217 23.9573 133.047 23.872H127.895C127.788 23.9573 127.639 24 127.447 24H121.847C121.655 24 121.505 23.9573 121.399 23.872H125.783C125.591 23.744 125.473 23.584 125.431 23.392H120.919C120.897 23.328 120.887 23.2427 120.887 23.136V22.752H119.863V22.432H120.631V21.792H120.247V21.152H120.471V20.672H120.663V20.352H120.535V20.032H119.991V19.552H120.439V19.232H120.887V18.592H120.343V18.272H120.247V18.112H120.535V17.792H120.503V17.632H120.279V17.152H121.111V16.672H121.943V16.512H120.983V16.032H120.535V15.552H120.407V15.232H120.599V14.592H120.471V13.952H120.567V13.792H120.503V13.632H120.407V13.472H120.343V12.832H120.183V12.672H121.207V12.192H120.279V12.032H121.719V11.552H119.927V11.392H120.887V11.232H123.127V10.752H119.927V10.112H120.471V9.472H120.759V9.312H120.855V8.832H120.247V8.512H120.599V7.872H120.311V7.392H120.631V6.752H120.567V6.272H120.311V5.632H120.951V5.312H120.471V5.152H119.607V4.992H118.806V4.352H119.255V4.192H120.118V3.712H117.974V3.552H122.007V3.392H121.527V3.072H116.054V2.912H115.254V2.272H122.519V2.112H119.991C119.991 2.02667 120.012 1.92 120.055 1.792H117.59C117.74 1.45067 117.996 1.28 118.358 1.28H123.959C124.343 1.28 124.609 1.45067 124.759 1.792H127.223C127.287 1.87733 127.319 1.984 127.319 2.112H129.847V2.272H122.583V2.912H123.383V3.072H128.855V3.392H129.335V3.552H125.303V3.712H127.447V4.192H126.583V4.352H126.135V4.992H126.935V5.152H127.799V5.312H128.279V5.632H127.639V6.272H127.895V6.752H127.959V7.392H127.639V7.872H127.927V8.512H127.575V8.832H128.183V9.312H128.087V9.472H127.799V10.112H127.255V10.752H130.295L130.679 10.112H129.079L129.495 9.472H129.687L129.783 9.312H129.623L129.911 8.832H130.295L130.487 8.512H130.423L130.807 7.904V7.872H130.519C130.561 7.808 130.625 7.72267 130.711 7.616C130.817 7.50933 130.956 7.43467 131.127 7.392H131.287C131.351 7.37067 131.447 7.36 131.575 7.36H138.039C138.145 7.36 138.22 7.37067 138.263 7.392H138.103C138.337 7.456 138.508 7.616 138.615 7.872H138.903C138.924 7.91467 138.935 7.95733 138.935 8C138.956 8.04267 138.967 8.08533 138.967 8.128C138.967 8.256 138.924 8.384 138.839 8.512H138.903C138.903 8.53333 138.881 8.56533 138.839 8.608L138.679 8.832H138.327L137.975 9.312H138.167L138.039 9.472H137.847L137.399 10.112H138.967L138.519 10.752L138.167 11.232H138.455L138.359 11.392H136.694L136.567 11.552H135.287L134.935 12.032H135.447L135.351 12.192H136.823L136.599 12.512L136.471 12.672H135.479L135.351 12.832H135.51L135.062 13.472H135.127L134.999 13.632H135.127L134.999 13.792H135.062L134.967 13.952H134.871L134.423 14.592H134.551L134.359 14.848L134.615 15.232H134.423L134.615 15.552H134.743L135.062 16.032H135.51L135.831 16.512H136.791L136.919 16.672H136.055L136.375 17.152H135.543L135.863 17.632H136.087L136.183 17.792H136.215L136.439 18.112H136.215L136.311 18.272H136.791L136.983 18.592H137.367L137.783 19.232H137.175L137.367 19.552H137.335L137.623 20.032H137.878L138.071 20.352H137.815L138.039 20.672H138.359L138.647 21.152H138.519L138.935 21.792H138.775L139.191 22.432H139.959L140.183 22.752H141.943L141.975 22.816C142.06 22.944 142.103 23.0827 142.103 23.232V23.392H138.967ZM128.215 11.392H127.255V11.552H128.407L128.503 11.392H130.167L130.263 11.232H128.215V11.392ZM128.535 12.192V12.512L128.727 12.192H128.535ZM133.591 23.392L133.207 22.752H131.447L131.255 22.432H130.487L130.103 21.792H130.263L129.879 21.152H130.007L129.719 20.672H129.399L129.207 20.352H129.463L129.271 20.032H129.047L128.759 19.552H128.823L128.631 19.232H129.207L128.823 18.592H128.47L128.279 18.272H127.831L127.735 18.112H127.575V18.272H127.671V18.592H128.215V19.232H127.767V19.552H127.319V20.032H127.863V20.352H127.991V20.672H127.799V21.152H127.575V21.792H127.959V22.432H127.191V22.752H128.215V23.136C128.215 23.2427 128.204 23.328 128.183 23.392H133.591ZM140.745 24V19.408H145.113V24H140.745Z" fill="url(#paint0_linear_2443_11650)"/>
<path d="M154.069 24.336C151.781 24.336 149.997 23.744 148.717 22.56C147.437 21.36 146.797 19.616 146.797 17.328C146.797 15.04 147.437 13.304 148.717 12.12C149.997 10.92 151.773 10.32 154.045 10.32C155.149 10.32 156.205 10.472 157.213 10.776C158.221 11.08 159.005 11.424 159.565 11.808V16.56H155.437V16.128C155.437 15.6 155.325 15.216 155.101 14.976C154.877 14.72 154.525 14.592 154.045 14.592C153.117 14.592 152.653 15.104 152.653 16.128V18.192C152.653 19.44 153.365 20.064 154.789 20.064C156.117 20.064 157.661 19.92 159.421 19.632V23.4C158.877 23.64 158.109 23.856 157.117 24.048C156.141 24.24 155.125 24.336 154.069 24.336ZM160.37 24.024V20.064H161.426V9.264H160.37V5.328H166.946V20.064H168.002V24.024H160.37ZM184.552 20.064V24H177.976V22.128C176.824 23.6 175.384 24.336 173.656 24.336C172.328 24.336 171.328 23.92 170.656 23.088C170 22.256 169.672 21.112 169.672 19.656V14.592H168.616V10.656H175.192V18.528C175.192 19.056 175.304 19.448 175.528 19.704C175.768 19.944 176.12 20.064 176.584 20.064C177.048 20.064 177.392 19.944 177.616 19.704C177.856 19.448 177.976 19.056 177.976 18.528V14.592H176.68V10.656H183.496V20.064H184.552ZM195.509 24.336C194.693 24.336 193.965 24.136 193.325 23.736C192.701 23.336 192.189 22.88 191.789 22.368V24H185.213V20.064H186.269V9.264H185.213V5.328H191.789V12.288C192.189 11.776 192.701 11.32 193.325 10.92C193.965 10.52 194.693 10.32 195.509 10.32C197.141 10.32 198.365 10.928 199.181 12.144C200.013 13.36 200.429 15.088 200.429 17.328C200.429 19.568 200.013 21.296 199.181 22.512C198.365 23.728 197.141 24.336 195.509 24.336ZM193.181 20.064C193.645 20.064 193.989 19.944 194.213 19.704C194.453 19.448 194.573 19.056 194.573 18.528V16.128C194.573 15.6 194.453 15.216 194.213 14.976C193.989 14.72 193.645 14.592 193.181 14.592C192.717 14.592 192.365 14.72 192.125 14.976C191.901 15.216 191.789 15.6 191.789 16.128V18.528C191.789 19.056 191.901 19.448 192.125 19.704C192.365 19.944 192.717 20.064 193.181 20.064Z" fill="url(#paint1_linear_2443_11650)"/>
</g>
<defs>
<filter id="filter0_d_2443_11650" x="0.439941" y="0" width="203.989" height="38.0801" filterUnits="userSpaceOnUse" color-interpolation-filters="sRGB">
<feFlood flood-opacity="0" result="BackgroundImageFix"/>
<feColorMatrix in="SourceAlpha" type="matrix" values="0 0 0 0 0 0 0 0 0 0 0 0 0 0 0 0 0 0 127 0" result="hardAlpha"/>
<feOffset dy="4"/>
<feGaussianBlur stdDeviation="2"/>
<feComposite in2="hardAlpha" operator="out"/>
<feColorMatrix type="matrix" values="0 0 0 0 0 0 0 0 0 0 0 0 0 0 0 0 0 0 0.51 0"/>
<feBlend mode="normal" in2="BackgroundImageFix" result="effect1_dropShadow_2443_11650"/>
<feBlend mode="normal" in="SourceGraphic" in2="effect1_dropShadow_2443_11650" result="shape"/>
</filter>
<linearGradient id="paint0_linear_2443_11650" x1="104" y1="-5" x2="104" y2="33" gradientUnits="userSpaceOnUse">
<stop offset="0.51" stop-color="#78E76E"/>
<stop offset="0.815" stop-color="#43A53A"/>
</linearGradient>
<linearGradient id="paint1_linear_2443_11650" x1="104" y1="-5" x2="104" y2="33" gradientUnits="userSpaceOnUse">
<stop offset="0.218921" stop-color="#C7C711"/>
<stop offset="0.815" stop-color="#BABA10"/>
<stop offset="1" stop-color="#616108"/>
</linearGradient>
</defs>
</svg>
